<svg width="25" height="25" viewBox="0 0 25 25" fill="none" xmlns="http://www.w3.org/2000/svg">
<path fill-rule="evenodd" clip-rule="evenodd" d="M12.0578 13.229C7.9829 13.229 4.61201 16.2879 4.11964 20.231C4.05121 20.779 4.50548 21.229 5.05777 21.229C5.61005 21.229 6.04903 20.7779 6.1404 20.2332C6.61615 17.3972 9.0887 15.229 12.0578 15.229C15.0268 15.229 17.4994 17.3972 17.9751 20.2332C18.0665 20.7779 18.5055 21.229 19.0578 21.229C19.6101 21.229 20.0643 20.779 19.9959 20.231C19.5035 16.2879 16.1326 13.229 12.0578 13.229Z" fill="#34AADD"/>
<path d="M12.0576 11.229C14.2636 11.229 16.0576 9.435 16.0576 7.229C16.0576 5.023 14.2636 3.229 12.0576 3.229C9.85162 3.229 8.05762 5.023 8.05762 7.229C8.05762 9.435 9.85162 11.229 12.0576 11.229" stroke="#34AADD" stroke-width="2"/>
</svg>
